<mxfile host="Electron" modified="2023-04-15T14:32:19.281Z" agent="Mozilla/5.0 (Windows NT 10.0; Win64; x64) AppleWebKit/537.36 (KHTML, like Gecko) draw.io/21.1.2 Chrome/106.0.5249.199 Electron/21.4.3 Safari/537.36" etag="JbR7GNWmGaWtd-otqOSW" version="21.1.2" type="device">
  <diagram name="Страница 1" id="IMW9DEoFK1bc6sumNbSN">
    <mxGraphModel dx="1434" dy="844" grid="1" gridSize="10" guides="1" tooltips="1" connect="1" arrows="1" fold="1" page="1" pageScale="1" pageWidth="827" pageHeight="1169" math="0" shadow="0">
      <root>
        <mxCell id="0" />
        <mxCell id="1" parent="0" />
        <mxCell id="aBortwi3U-iXQjHzd57l-1" value="Пользователь" style="shape=umlActor;verticalLabelPosition=bottom;verticalAlign=top;html=1;outlineConnect=0;fontSize=16;" parent="1" vertex="1">
          <mxGeometry x="40" y="110" width="50" height="80" as="geometry" />
        </mxCell>
        <mxCell id="aBortwi3U-iXQjHzd57l-9" style="edgeStyle=orthogonalEdgeStyle;rounded=0;orthogonalLoop=1;jettySize=auto;html=1;exitX=0;exitY=0.75;exitDx=0;exitDy=0;" parent="1" source="aBortwi3U-iXQjHzd57l-2" edge="1">
          <mxGeometry relative="1" as="geometry">
            <mxPoint x="90" y="170" as="targetPoint" />
            <Array as="points">
              <mxPoint x="100" y="170" />
            </Array>
          </mxGeometry>
        </mxCell>
        <mxCell id="aBortwi3U-iXQjHzd57l-10" value="Конечное&lt;br style=&quot;border-color: var(--border-color); font-size: 12px;&quot;&gt;&lt;span style=&quot;font-size: 12px;&quot;&gt;изображение&lt;/span&gt;" style="edgeLabel;html=1;align=center;verticalAlign=middle;resizable=0;points=[];fontSize=12;" parent="aBortwi3U-iXQjHzd57l-9" vertex="1" connectable="0">
          <mxGeometry x="0.2462" y="3" relative="1" as="geometry">
            <mxPoint x="21" y="17" as="offset" />
          </mxGeometry>
        </mxCell>
        <mxCell id="aBortwi3U-iXQjHzd57l-14" style="edgeStyle=orthogonalEdgeStyle;rounded=0;orthogonalLoop=1;jettySize=auto;html=1;exitX=1;exitY=0.25;exitDx=0;exitDy=0;entryX=0;entryY=0.25;entryDx=0;entryDy=0;" parent="1" source="aBortwi3U-iXQjHzd57l-2" target="aBortwi3U-iXQjHzd57l-4" edge="1">
          <mxGeometry relative="1" as="geometry" />
        </mxCell>
        <mxCell id="aBortwi3U-iXQjHzd57l-15" value="Снимки окружения" style="edgeLabel;html=1;align=center;verticalAlign=middle;resizable=0;points=[];fontSize=12;" parent="aBortwi3U-iXQjHzd57l-14" vertex="1" connectable="0">
          <mxGeometry x="-0.1538" y="2" relative="1" as="geometry">
            <mxPoint x="9" y="-13" as="offset" />
          </mxGeometry>
        </mxCell>
        <mxCell id="aBortwi3U-iXQjHzd57l-16" value="Трехмерная&lt;br style=&quot;font-size: 12px;&quot;&gt;модель" style="edgeStyle=orthogonalEdgeStyle;rounded=0;orthogonalLoop=1;jettySize=auto;html=1;exitX=0.993;exitY=0.65;exitDx=0;exitDy=0;entryX=0;entryY=0.25;entryDx=0;entryDy=0;fontSize=12;exitPerimeter=0;" parent="1" source="aBortwi3U-iXQjHzd57l-2" target="aBortwi3U-iXQjHzd57l-7" edge="1">
          <mxGeometry x="0.8302" y="20" relative="1" as="geometry">
            <Array as="points">
              <mxPoint x="440" y="162" />
              <mxPoint x="440" y="590" />
            </Array>
            <mxPoint as="offset" />
          </mxGeometry>
        </mxCell>
        <mxCell id="aBortwi3U-iXQjHzd57l-19" value="Карта&lt;br style=&quot;font-size: 12px;&quot;&gt;глубины&lt;br style=&quot;font-size: 12px;&quot;&gt;окружения" style="edgeStyle=orthogonalEdgeStyle;rounded=0;orthogonalLoop=1;jettySize=auto;html=1;exitX=1;exitY=0.5;exitDx=0;exitDy=0;entryX=0;entryY=0.5;entryDx=0;entryDy=0;fontSize=12;" parent="1" source="aBortwi3U-iXQjHzd57l-2" target="aBortwi3U-iXQjHzd57l-5" edge="1">
          <mxGeometry x="0.1579" y="40" relative="1" as="geometry">
            <Array as="points">
              <mxPoint x="470" y="150" />
              <mxPoint x="470" y="300" />
            </Array>
            <mxPoint as="offset" />
          </mxGeometry>
        </mxCell>
        <mxCell id="aBortwi3U-iXQjHzd57l-20" style="edgeStyle=orthogonalEdgeStyle;rounded=0;orthogonalLoop=1;jettySize=auto;html=1;exitX=1;exitY=0.5;exitDx=0;exitDy=0;entryX=0;entryY=0.5;entryDx=0;entryDy=0;" parent="1" source="aBortwi3U-iXQjHzd57l-2" target="aBortwi3U-iXQjHzd57l-6" edge="1">
          <mxGeometry relative="1" as="geometry">
            <Array as="points">
              <mxPoint x="470" y="150" />
              <mxPoint x="470" y="420" />
            </Array>
          </mxGeometry>
        </mxCell>
        <mxCell id="aBortwi3U-iXQjHzd57l-2" value="Приложение" style="rounded=0;whiteSpace=wrap;html=1;fontSize=16;" parent="1" vertex="1">
          <mxGeometry x="230" y="110" width="140" height="80" as="geometry" />
        </mxCell>
        <mxCell id="aBortwi3U-iXQjHzd57l-3" value="Снимки окружения,&lt;br&gt;карта глубины &lt;br&gt;окружения,&lt;br style=&quot;font-size: 12px;&quot;&gt;трехмерная модель" style="endArrow=classic;html=1;rounded=0;entryX=0;entryY=0.25;entryDx=0;entryDy=0;fontSize=12;" parent="1" target="aBortwi3U-iXQjHzd57l-2" edge="1">
          <mxGeometry x="-0.0769" y="30" width="50" height="50" relative="1" as="geometry">
            <mxPoint x="100" y="130" as="sourcePoint" />
            <mxPoint x="440" y="370" as="targetPoint" />
            <mxPoint as="offset" />
          </mxGeometry>
        </mxCell>
        <mxCell id="aBortwi3U-iXQjHzd57l-11" value="Обработанные&lt;br style=&quot;font-size: 12px;&quot;&gt;снимки&lt;br style=&quot;font-size: 12px;&quot;&gt;окружения" style="edgeStyle=orthogonalEdgeStyle;rounded=0;orthogonalLoop=1;jettySize=auto;html=1;exitX=0.5;exitY=1;exitDx=0;exitDy=0;entryX=0.5;entryY=0;entryDx=0;entryDy=0;fontSize=12;" parent="1" source="aBortwi3U-iXQjHzd57l-4" target="aBortwi3U-iXQjHzd57l-5" edge="1">
          <mxGeometry y="50" relative="1" as="geometry">
            <mxPoint as="offset" />
          </mxGeometry>
        </mxCell>
        <mxCell id="aBortwi3U-iXQjHzd57l-4" value="Модуль&lt;br&gt;обработки изображений" style="rounded=0;whiteSpace=wrap;html=1;fontSize=16;" parent="1" vertex="1">
          <mxGeometry x="530" y="110" width="140" height="80" as="geometry" />
        </mxCell>
        <mxCell id="aBortwi3U-iXQjHzd57l-12" value="Координаты&lt;br style=&quot;font-size: 12px;&quot;&gt;источников&lt;br&gt;света" style="edgeStyle=orthogonalEdgeStyle;rounded=0;orthogonalLoop=1;jettySize=auto;html=1;exitX=0.5;exitY=1;exitDx=0;exitDy=0;entryX=0.75;entryY=0;entryDx=0;entryDy=0;fontSize=12;" parent="1" source="aBortwi3U-iXQjHzd57l-5" target="aBortwi3U-iXQjHzd57l-7" edge="1">
          <mxGeometry x="0.1368" y="50" relative="1" as="geometry">
            <Array as="points">
              <mxPoint x="600" y="350" />
              <mxPoint x="730" y="350" />
              <mxPoint x="730" y="550" />
              <mxPoint x="635" y="550" />
            </Array>
            <mxPoint as="offset" />
          </mxGeometry>
        </mxCell>
        <mxCell id="aBortwi3U-iXQjHzd57l-5" value="Модуль поиска положения источников света" style="rounded=0;whiteSpace=wrap;html=1;fontSize=16;" parent="1" vertex="1">
          <mxGeometry x="530" y="260" width="140" height="80" as="geometry" />
        </mxCell>
        <mxCell id="aBortwi3U-iXQjHzd57l-13" value="Полигональная&lt;br&gt;сетка окружения" style="edgeStyle=orthogonalEdgeStyle;rounded=0;orthogonalLoop=1;jettySize=auto;html=1;exitX=0.5;exitY=1;exitDx=0;exitDy=0;fontSize=12;" parent="1" source="aBortwi3U-iXQjHzd57l-6" target="aBortwi3U-iXQjHzd57l-7" edge="1">
          <mxGeometry x="-0.2727" y="50" relative="1" as="geometry">
            <mxPoint as="offset" />
          </mxGeometry>
        </mxCell>
        <mxCell id="aBortwi3U-iXQjHzd57l-6" value="Модуль построения геометрии окружения" style="rounded=0;whiteSpace=wrap;html=1;fontSize=16;" parent="1" vertex="1">
          <mxGeometry x="530" y="380" width="140" height="80" as="geometry" />
        </mxCell>
        <mxCell id="aBortwi3U-iXQjHzd57l-8" value="Конечное&lt;br style=&quot;font-size: 12px;&quot;&gt;изображение" style="edgeStyle=orthogonalEdgeStyle;rounded=0;orthogonalLoop=1;jettySize=auto;html=1;exitX=0;exitY=0.5;exitDx=0;exitDy=0;entryX=1;entryY=0.85;entryDx=0;entryDy=0;fontSize=12;entryPerimeter=0;" parent="1" source="aBortwi3U-iXQjHzd57l-7" target="aBortwi3U-iXQjHzd57l-2" edge="1">
          <mxGeometry x="-0.6726" y="20" relative="1" as="geometry">
            <Array as="points">
              <mxPoint x="400" y="610" />
              <mxPoint x="400" y="178" />
            </Array>
            <mxPoint as="offset" />
          </mxGeometry>
        </mxCell>
        <mxCell id="aBortwi3U-iXQjHzd57l-7" value="Графический&lt;br style=&quot;font-size: 16px;&quot;&gt;движок" style="rounded=0;whiteSpace=wrap;html=1;fontSize=16;" parent="1" vertex="1">
          <mxGeometry x="530" y="570" width="140" height="80" as="geometry" />
        </mxCell>
      </root>
    </mxGraphModel>
  </diagram>
</mxfile>
